<?xml version="1.0" encoding="UTF-8"?><svg id="Laag_1" xmlns="http://www.w3.org/2000/svg" viewBox="0 0 566.93 708.66"><defs><style>.cls-1{fill:#004e6c;}.cls-1,.cls-2,.cls-3{stroke-width:0px;}.cls-2{fill:#00b0eb;}.cls-3{fill:#cd1719;}</style></defs><path class="cls-2" d="M376.83,120.57c59.86,61.15,100.6,175.3,100.6,271.75,0,72.12-22.77,121.7-59.28,152.78-2.28,3.65-4.75,7.01-7.39,10.11,47.84-31.6,76.92-90.66,76.92-178.65,0-128.96-62.45-279.63-154.89-301.43,15.88,10.82,30.63,26.44,44.05,45.44Z"/><path class="cls-1" d="M281.07,76.86c9.37-2.89,18.97-4.42,28.74-4.42,7.84,0,15.5.93,22.97,2.69-15.63-10.65-32.35-16.66-49.98-16.66-39.29,0-75.79,24.72-106.09,62.97,16.01-12.12,33.34-21.04,51.62-25.96,16.68-10.78,34.37-17.37,52.72-18.63Z"/><path class="cls-1" d="M281.07,76.86c2.12-.14,4.25-.23,6.39-.23,32.31,0,62.73,16.72,89.37,43.94-13.41-19-28.16-34.62-44.05-45.44-7.47-1.76-15.13-2.69-22.97-2.69-9.77,0-19.37,1.53-28.74,4.42Z"/><path class="cls-3" d="M353.96,578.38c-20.7,5.81-43.1,8.57-66.49,8.57-89.05,0-163.78-39.81-184.35-137.07-3.67-17.33-5.62-36.48-5.62-57.56,0-111.96,54.88-247.74,130.85-296.84-18.28,4.93-35.61,13.84-51.62,25.96-61.83,46.82-103.83,141.59-103.83,240.39,0,139.38,93.89,229.73,198.8,229.73,63.16,0,110.99-3.32,139.07-36.36,2.64-3.1,5.11-6.46,7.39-10.11-18.32,15.59-40.1,26.51-64.19,33.28Z"/><path class="cls-1" d="M433.96,398.74c0-2.91-1.15-5.62-3.25-7.31-1.83-1.56-3.79-2.64-8.46-4.74-3.45-1.56-4.74-2.84-4.74-5.08,0-2.57,2.03-4.33,5.01-4.33,2.1,0,3.05.61,4.6,2.91,1.83,2.84,3.93,4.81,5.14,4.81.75,0,1.35-.68,1.35-1.56,0-.81-1.35-3.79-1.35-6.84,0-1.49-.61-2.17-1.42-2.17-.95,0-1.35.88-2.57.88-.88,0-2.98-.74-5.14-.74-5.89,0-10.22,4.2-10.22,9.88s4.81,7.99,8.87,10.02c5.21,2.57,7.38,4.06,7.38,7.04s-2.3,4.81-5.62,4.81c-1.76,0-2.98-.41-3.99-1.29-.74-.74-.88-.88-2.17-2.91-2.1-3.25-3.65-4.81-4.8-4.81-.74,0-1.35.54-1.35,1.15,0,.41.34,1.15.54,1.96.34,1.08.68,3.99.68,4.53,0,.27-.07.61-.07,1.56,0,1.08.41,1.56,1.35,1.56.88,0,1.35-.34,2.23-.34,1.56,0,3.52,1.42,7.04,1.42,6.57,0,10.96-4.2,10.96-10.42M402.08,383.31c0-3.11.47-6.36.47-7.11,0-1.15-.41-1.35-1.89-1.35-.74,0-1.22.07-3.11.07-2.03,0-3.65-.14-5.48-.14-1.49,0-1.89.27-1.89,1.49,0,1.42.61,1.49,2.77,1.49,1.56,0,2.3.14,2.57.61.27.41.34.81.34,2.5v19.76c-2.71,2.37-5.14,3.38-7.85,3.38-3.93,0-5.48-2.5-5.48-9.48v-.88l.14-9.81c.07-4.67.27-6.84.27-7.72,0-.74-.47-1.29-1.22-1.29-.68,0-3.52.14-5.14.14-1.22,0-2.77-.2-4.13-.2-.95,0-1.35.41-1.35,1.49,0,1.02.47,1.49,1.69,1.49.41,0,.68-.07,1.08-.07.88,0,1.35.13,1.83.54.61.54.81,1.15.81,5.35,0,4.74-.27,12.18-.27,13.88,0,7.51,2.91,11.24,8.87,11.24,3.25,0,4.94-1.15,6.9-2.77,1.89-1.56,3.25-2.77,3.93-3.18,0,1.62-.14,3.11-.14,4.06,0,1.15.41,1.69,1.56,1.69.81,0,1.69-.41,2.77-1.02,1.89-1.08,3.86-1.42,5.89-1.83,1.22-.2,1.69-.68,1.69-1.62,0-1.01-.47-1.35-1.76-1.35-1.76,0-3.18-.41-3.52-.88-.27-.41-.34-.81-.34-2.84v-15.64ZM343.26,381c2.03-1.62,4.47-2.57,6.9-2.57,6.23,0,9.88,5.14,9.88,13.81s-3.45,13.4-9,13.4c-3.86,0-6.16-2.37-7.78-3.79v-20.85ZM343.26,371.39c0-11.17.54-10.96.54-11.98,0-.88-.68-1.42-1.69-1.42-2.03,0-1.69,1.69-7.65,2.3-2.17.2-2.77.47-2.77,1.76,0,.95.41,1.29,2.23,1.96,1.76.68,2.64,1.22,2.91,1.76.13.34.2.81.2,2.57v33.23c0,2.91-.47,3.72-.47,4.74,0,.74.61,1.35,1.42,1.35s1.96-.61,2.64-.61c1.62,0,4.54,1.62,9.07,1.62,10.42,0,17.06-6.97,17.06-17.8,0-9.81-5.41-16.72-13.13-16.72-3.52,0-7.17,1.62-10.36,4.54v-7.31ZM324.58,385c0-4.6-.2-5.89-1.08-7.38-1.29-2.23-3.99-3.52-7.38-3.52-2.84,0-5.35.88-7.58,2.57-1.89,1.49-3.32,2.91-3.32,2.91-1.35-3.72-3.99-5.48-8.33-5.48-2.77,0-5.01.81-7.24,2.57-1.22.95-3.45,2.91-3.45,2.91,0,0,.14-3.52.14-3.86,0-1.08-.41-1.49-1.56-1.49-.61,0-.95.07-2.23.81-1.76.95-4.67,1.35-5.62,1.49-1.83.2-2.44.61-2.44,1.69,0,.74.34,1.08,1.35,1.42,1.96.61,3.45,1.29,3.86,2.03.27.47.27,4.74.27,6.16v15.09c0,.61.14,1.69-.95,2.1-.41.14-1.08.2-1.83.2-1.29,0-1.83.41-1.83,1.35,0,.88.54,1.42,1.49,1.42.88,0,2.3-.27,6.63-.27,3.72,0,4.94.27,6.02.27,1.02,0,1.49-.41,1.49-1.42s-.41-1.29-2.1-1.29c-1.35,0-2.03-.14-2.37-.61-.34-.54-.34-1.49-.34-3.45v-19.63c2.57-2.1,5.28-2.91,7.65-2.91,2.23,0,3.86.74,4.6,2.03.68,1.29.88,2.71.88,6.02v14.55c0,.81-.07,1.56-.07,2.03-.07,1.76-.68,1.96-2.84,1.96-1.15,0-1.76.47-1.76,1.42,0,.81.54,1.35,1.42,1.35.75,0,2.1-.34,6.09-.34,3.72,0,5.28.27,6.29.27,1.35,0,1.76-.54,1.76-1.29,0-1.08-.61-1.56-1.96-1.56-2.5,0-2.71,0-2.71-2.98v-15.02q0-2.51-.14-5.75c2.64-1.89,4.67-2.71,7.11-2.71,2.57,0,4.47.95,5.14,2.5.54,1.29.68,2.3.68,6.09v11.3c0,3.32-.13,4.6-.13,4.81,0,1.42-.41,1.83-1.76,1.83-.47,0-.74.07-1.22.07-1.02,0-1.56.27-1.56,1.35,0,1.01.34,1.35,1.29,1.35.61,0,2.23-.34,6.5-.34,3.79,0,6.02.41,6.63.41.74,0,1.22-.54,1.22-1.42,0-1.08-.34-1.49-1.49-1.49-.54,0-.74.07-.95.07-.81,0-1.56-.2-1.9-.54-.34-.41-.41-.61-.41-2.3v-17.39ZM266.04,383.31c0-3.11.47-6.36.47-7.11,0-1.15-.41-1.35-1.89-1.35-.74,0-1.22.07-3.11.07-2.03,0-3.65-.14-5.48-.14-1.49,0-1.89.27-1.89,1.49,0,1.42.61,1.49,2.77,1.49,1.56,0,2.3.14,2.57.61.27.41.34.81.34,2.5v19.76c-2.71,2.37-5.14,3.38-7.85,3.38-3.93,0-5.48-2.5-5.48-9.48v-.88l.13-9.81c.07-4.67.27-6.84.27-7.72,0-.74-.47-1.29-1.22-1.29-.68,0-3.52.14-5.14.14-1.22,0-2.78-.2-4.13-.2-.95,0-1.35.41-1.35,1.49,0,1.02.47,1.49,1.69,1.49.41,0,.68-.07,1.08-.07.88,0,1.35.13,1.83.54.61.54.81,1.15.81,5.35,0,4.74-.27,12.18-.27,13.88,0,7.51,2.91,11.24,8.87,11.24,3.25,0,4.94-1.15,6.9-2.77,1.89-1.56,3.25-2.77,3.93-3.18,0,1.62-.14,3.11-.14,4.06,0,1.15.41,1.69,1.56,1.69.81,0,1.69-.41,2.78-1.02,1.9-1.08,3.86-1.42,5.89-1.83,1.22-.2,1.69-.68,1.69-1.62,0-1.01-.47-1.35-1.76-1.35-1.76,0-3.18-.41-3.52-.88-.27-.41-.34-.81-.34-2.84v-15.64ZM227.12,365.84c0-4.8.34-6.09.34-6.77,0-.81-.61-1.35-1.42-1.35-.61,0-1.01.2-2.03.81-1.96,1.15-3.59,1.62-5.89,1.62-2.03,0-2.84.41-2.84,1.69,0,1.02.74,1.62,2.3,1.89,2.77.54,3.05.74,3.18,2.57.07,1.01.13,2.3.13,3.32v31c0,2.91-.13,3.72-.74,4.2-.34.27-1.83.47-2.84.47-1.49,0-2.1.41-2.1,1.35,0,.88.54,1.42,1.35,1.42.74,0,4.94-.34,7.24-.34,1.76,0,6.9.27,7.31.27.95,0,1.29-.34,1.29-1.22,0-1.15-.47-1.49-2.3-1.56-1.15-.07-1.96-.2-2.3-.54-.61-.54-.68-.81-.68-4.4v-34.45ZM203.84,391.43c0,9.68-3.32,14.89-9.34,14.89s-9.34-5.21-9.34-14.89,3.25-14.82,9.34-14.82,9.34,5.14,9.34,14.82M210.94,391.43c0-10.29-6.77-17.6-16.45-17.6s-16.51,7.31-16.51,17.6,6.84,17.6,16.51,17.6,16.45-7.24,16.45-17.6M171.76,374.44c0-.81-.41-2.03-.95-3.93-.54-1.96-.95-4.2-.95-7.44,0-2.71-.47-3.52-1.96-3.52-.68,0-1.08.27-1.62.68-.68.47-1.08,1.02-1.83,1.02-1.62,0-5.75-2.37-13.13-2.37-14.55,0-24.7,10.56-24.7,25.79s9.75,25.25,24.7,25.25c7.65,0,14.01-2.64,18.55-7.58.95-1.08,1.42-2.03,1.42-2.77,0-.95-.74-1.76-1.69-1.76-.61,0-1.02.27-1.62,1.15-3.59,4.74-9.21,7.51-15.03,7.51-11.1,0-16.92-7.78-16.92-22.54s5.41-22.13,15.36-22.13c2.64,0,5.41.74,7.11,1.83,1.56.95,2.57,2.1,4.67,5.28,3.65,5.48,5.28,7.17,6.97,7.17.95,0,1.62-.68,1.62-1.62"/><path class="cls-1" d="M374.33,318.81c0-4.94-.34-6.97-1.42-8.6-1.42-2.1-4.54-3.52-7.65-3.52-3.52,0-6.09,1.29-11.1,5.62,0-2.03.14-3.65.14-4.26,0-.88-.47-1.35-1.35-1.35-1.01,0-1.56.68-2.64,1.15-1.62.74-3.05.95-5.35,1.22-1.62.2-2.3.68-2.3,1.83,0,1.02.54,1.42,2.51,1.83,1.56.34,2.37.81,2.64,1.62.14.47.2,3.45.2,4.47v13.61c0,2.3,0,4.33-.41,4.74-.47.47-1.29.61-2.44.61-1.35,0-1.83.34-1.83,1.35s.41,1.42,1.49,1.42c.81,0,1.96-.27,6.23-.27,5.08,0,5.55.27,6.57.27.88,0,1.35-.41,1.35-1.22,0-1.49-.74-1.56-2.64-1.56-.81,0-1.35-.14-1.62-.41-.54-.54-.47-2.71-.47-5.48v-17.67c3.18-2.17,5.21-2.91,7.58-2.91,3.18,0,5.28,1.56,5.89,4.27.27,1.35.41,2.77.41,5.75v11.71c0,1.96.07,3.52-.47,4.2-.27.34-.74.47-1.49.47-2.03,0-2.64.27-2.64,1.49,0,.95.41,1.29,1.35,1.29.34,0,1.49-.2,6.57-.2,3.99,0,5.55.27,6.3.27.95,0,1.42-.47,1.42-1.35,0-1.02-.47-1.49-1.56-1.49-.61,0-.95.07-1.29.07-.68,0-1.29-.41-1.62-.81-.27-.34-.34-1.35-.34-2.77v-15.37ZM328.17,332.62c-1.76,1.15-4.2,3.59-6.77,3.59-2.1,0-3.65-1.9-3.65-4.54,0-4.06,3.25-6.57,10.56-8.05l-.14,9ZM328.1,334.99c0,4.81,1.22,5.89,4.4,5.89,4.2,0,7.99-1.76,7.99-3.65,0-.88-.47-1.42-1.35-1.42s-1.69.41-2.91.41c-1.96,0-2.17-1.02-2.17-4.2,0-2.17.34-14.62.34-16.38,0-3.45-.47-5.08-2.03-6.56-1.62-1.56-3.79-2.37-6.57-2.37-4.47,0-9.61,2.23-12.59,5.35-1.22,1.29-1.9,2.84-1.9,4.33,0,2.37,1.56,3.92,3.86,3.92,2.44,0,4.2-1.56,4.2-3.65,0-2.77-2.57-3.18-2.57-4.26,0-1.15,1.96-2.1,4.27-2.1,2.57,0,5.01,1.01,6.16,2.5.61.74,1.01,1.69,1.01,3.18,0,.88.07,5.75.07,5.75-10.69,1.89-16.79,6.36-16.79,12.25,0,3.99,3.05,7.17,6.9,7.17,2.03,0,3.38-.61,5.48-2.44l4.2-3.72ZM292.77,329.37c-.74,1.83-1.56,3.86-1.83,6.29h-.27c-.07-2.57-.95-4.81-1.9-7.45l-4.74-12.93c-.54-1.42-1.08-3.11-1.08-3.65,0-1.08,1.08-1.29,2.77-1.29,1.35,0,1.83-.34,1.83-1.62,0-.95-.34-1.29-1.15-1.29-.14,0-4.2.34-7.11.34-3.65,0-6.9-.41-7.38-.41-.81,0-1.29.54-1.29,1.42,0,1.08.41,1.35,1.96,1.49,1.22.07,2.3.61,2.84,1.42.2.27.88,1.83,1.49,3.32l8.53,21.52c.34.81.74,2.1.88,2.57.61,1.9.88,2.1,2.5,2.1,1.76,0,2.03-.2,2.71-2.37.27-.74.95-2.44,1.22-3.05l9.14-20.98c.95-2.17,1.15-2.98,2.1-3.65.81-.61,1.02-.68,3.05-.74,1.15-.07,1.56-.47,1.56-1.62,0-.95-.27-1.29-1.15-1.29s-1.69.27-5.48.27c-2.71,0-5.96-.34-6.09-.34-.74,0-1.15.54-1.15,1.42,0,1.22.41,1.56,2.17,1.56,1.49,0,2.37.47,2.37,1.42,0,.61-.47,2.23-1.15,3.93l-5.35,13.6ZM249.93,313.47c0-3.59.41-4.6.41-5.14,0-.61-.81-1.42-1.62-1.42-.74,0-1.49.61-2.64,1.29-1.96,1.15-4.4,1.01-5.41,1.01-1.76,0-2.37.41-2.37,1.62,0,1.15.54,1.62,2.64,2.03,2.57.54,2.78,1.02,2.78,4.67v16.92c0,3.11-.41,3.32-3.45,3.32-1.15,0-1.76.47-1.76,1.49,0,.88.54,1.29,1.62,1.29.95,0,2.17-.27,7.24-.27,4.13,0,5.41.27,6.29.27,1.15,0,1.56-.34,1.56-1.35,0-.95-.75-1.42-2.03-1.42-.41,0-.81.07-1.02.07-1.89,0-2.1-.61-2.17-2.37-.07-.88-.07-2.03-.07-3.38v-18.61ZM251.42,296.28c0-2.37-1.96-4.33-4.33-4.33s-4.33,1.96-4.33,4.33,1.96,4.33,4.33,4.33,4.33-1.96,4.33-4.33M211.01,317.46h-13.81l5.08-11.78c.88-2.1,2.3-6.3,2.64-7.99.07,3.79.74,6.09,1.49,7.99l4.6,11.78ZM210.47,294.24c-.68-1.76-.68-2.44-2.84-2.44-1.35,0-2.1.14-2.5.41-.34.27-.41.34-.95,1.49l-17.33,38.38c-.81,1.76-1.42,3.86-2.98,4.6-.81.41-2.44.81-3.79.95-1.62.14-2.17.61-2.17,1.69,0,.88.47,1.35,1.29,1.35.47,0,4.2-.34,8.26-.34,3.65,0,6.23.47,7.38.47s1.62-.54,1.62-1.62c0-1.49-1.15-1.42-2.17-1.62-1.08-.2-2.37-.27-3.32-.54-.81-.2-1.42-.34-1.42-1.22,0-.74.54-2.17,1.15-3.52l5.21-11.98h16.18l5.08,12.86c.47,1.29.74,2.03.74,2.64,0,.34-.13.61-.34.88-.68.74-3.52.81-4.26.81-1.49,0-2.64.2-2.64,1.56,0,1.02.61,1.56,1.56,1.56,1.08,0,3.52-.41,10.76-.41,3.99,0,8.33.27,9.48.27,1.69,0,2.1-.27,2.1-1.49,0-1.02-.54-1.62-1.69-1.62-.54,0-3.32.07-4.87-1.02-.68-.47-1.35-1.76-2.98-5.75l-14.55-36.35Z"/><path class="cls-1" d="M321.2,244.65s-.41,7.24-.41,15.84c0,5.35.27,7.44,1.15,9.34,1.15,2.44,3.86,3.79,7.44,3.79,3.18,0,5.82-1.08,7.99-3.18,1.02-1.01,1.62-2.1,1.62-2.84s-.54-1.22-.95-1.22c-.68,0-2.91,2.5-6.09,2.5-2.3,0-3.99-1.22-4.54-3.18-.41-1.56-.47-3.11-.47-7.45,0-2.03-.07-13.67-.07-13.67,6.5,0,8.46.27,9.88.27,1.15,0,1.56-.68,1.56-2.57,0-1.56-.41-2.1-1.69-2.1,0,0-5.21.47-7.58.47-.74,0-2.03-.07-2.03-.07,0-5.08.41-5.82.41-6.63,0-1.15-.61-1.42-1.69-1.42-1.76,0-1.89,1.62-2.5,3.52-.61,1.96-1.83,3.79-4.13,4.67-1.89.74-3.38.61-3.38,2.17,0,1.35.54,1.76,2.57,1.76h2.91ZM290.2,251.82c.68-6.63,3.25-10.02,7.72-10.02s6.9,3.32,7.04,9.54l-14.76.47ZM311.99,251.08c0-6.77-5.89-12.18-13.2-12.18-9.07,0-15.36,7.38-15.36,17.94s5.82,17.33,14.76,17.33c5.21,0,9.14-2.03,12.18-6.16.88-1.22,1.22-2.03,1.22-2.71s-.41-1.22-1.02-1.22c-.47,0-.74.2-1.49.88-2.37,2.17-5.82,3.52-9.07,3.52-6.5,0-10.22-4.53-10.22-12.39,0-.88.07-2.03.07-2.03,0,0,17.12.34,19.63.34,2.1,0,2.5-.07,2.5-3.32M270.78,231.04c0-2.71,0-3.18,4.4-3.18.74,0,2.23.2,2.23-1.62,0-1.15-.34-1.49-1.22-1.49-.41,0-5.75.27-9.48.27-4.26,0-8.6-.27-9.75-.27-.81,0-1.22.47-1.22,1.42,0,1.56.61,1.69,1.69,1.69,1.69,0,2.64.07,3.32.14,1.76.07,1.9.47,1.9,3.72v14.82h-25.18v-14.48c0-3.92.2-4.06,2.51-4.2l2.77-.14c1.15-.07,1.62-.27,1.62-1.62,0-1.08-.27-1.35-1.22-1.35-.81,0-4.74.27-10.09.27-3.79,0-8.87-.27-9.07-.27-.95,0-1.29.34-1.29,1.35,0,1.22.34,1.69,1.42,1.76l2.77.14c2.03.07,2.44.2,2.44,4.47v33.57c0,2.91-.54,3.86-2.44,3.86-1.49,0-2.3.07-2.71.07-1.15,0-1.83.34-1.83,1.42s.54,1.62,1.42,1.62c.81,0,6.16-.34,9.27-.34,6.09,0,9.07.34,10.15.34.88,0,1.35-.47,1.35-1.35,0-1.42-.2-1.76-2.57-1.76h-1.9c-2.64,0-2.64-.54-2.64-2.91v-17.53h25.18v16.04c0,4.13-.54,4.47-3.11,4.47-.74,0-1.22-.07-1.89-.07-1.49,0-2.1.54-2.1,1.56,0,1.08.47,1.49,1.29,1.49,1.22,0,6.3-.27,9.95-.27,5.35,0,8.53.34,9.48.34,1.02,0,1.49-.54,1.49-1.56,0-1.35-.61-1.62-1.69-1.62-1.15,0-2.3,0-3.18-.07-1.83-.2-2.1-.34-2.1-4.26v-34.45Z"/></svg>